<?xml version="1.0" standalone="no"?>
<!DOCTYPE svg PUBLIC "-//W3C//DTD SVG 20010904//EN"
 "http://www.w3.org/TR/2001/REC-SVG-20010904/DTD/svg10.dtd">
<svg version="1.0" xmlns="http://www.w3.org/2000/svg"
 width="328.000000pt" height="328.000000pt" viewBox="0 0 328.000000 328.000000"
 preserveAspectRatio="xMidYMid meet">

<g transform="translate(0.000000,328.000000) scale(0.100000,-0.100000)"
fill="#000000" stroke="none">
<path d="M2057 2753 c-36 -4 -46 -15 -213 -224 -97 -120 -178 -219 -179 -219
-2 0 -152 96 -332 213 l-328 213 -248 -5 -248 -6 611 -399 c335 -219 630 -411
654 -427 l44 -27 339 426 c186 234 344 434 351 444 13 17 4 18 -200 16 -117
-1 -230 -3 -251 -5z"/>
<path d="M74 2500 c40 -116 79 -216 87 -224 7 -7 153 -104 324 -215 171 -111
311 -206 313 -211 2 -5 -75 -107 -171 -227 l-174 -218 73 -214 c40 -117 75
-215 77 -217 4 -4 702 877 701 885 -2 6 -1285 849 -1295 850 -4 1 26 -94 65
-209z"/>
<path d="M2327 1879 c-191 -241 -349 -441 -350 -445 -2 -5 1288 -854 1298
-854 6 0 -136 412 -146 425 -4 6 -152 105 -328 220 -184 120 -319 215 -317
222 3 6 81 108 175 226 l170 215 -70 202 c-38 111 -73 208 -77 215 -4 9 -129
-141 -355 -426z"/>
<path d="M1113 977 l-351 -442 172 -3 c94 -2 207 0 251 3 l80 7 147 186 c81
103 160 202 175 221 l28 33 330 -214 330 -214 248 5 249 6 -629 409 c-345 225
-640 418 -654 427 l-26 18 -350 -442z"/>
</g>
</svg>
